<?xml version="1.0" standalone="no"?>
<!DOCTYPE svg PUBLIC "-//W3C//DTD SVG 20010904//EN"
 "http://www.w3.org/TR/2001/REC-SVG-20010904/DTD/svg10.dtd">
<svg version="1.0" xmlns="http://www.w3.org/2000/svg"
 width="998.000000pt" height="375.000000pt" viewBox="0 0 998.000000 375.000000"
 preserveAspectRatio="xMidYMid meet">
<metadata>
Created by potrace 1.16, written by Peter Selinger 2001-2019
</metadata>
<g transform="translate(0.000000,375.000000) scale(0.100000,-0.100000)"
fill="#000000" stroke="none">
<path d="M8975 3723 c-44 -5 -243 -46 -1100 -224 -423 -88 -889 -185 -1035
-215 -442 -91 -534 -110 -815 -169 -148 -31 -290 -60 -315 -65 -25 -5 -88 -18
-140 -29 -52 -11 -401 -84 -775 -161 -374 -78 -896 -186 -1160 -241 -264 -55
-554 -115 -645 -134 -91 -19 -275 -57 -410 -85 -242 -50 -359 -74 -700 -145
-96 -19 -227 -47 -290 -60 -63 -13 -290 -61 -505 -105 -214 -45 -417 -90 -450
-102 -195 -65 -325 -183 -325 -295 0 -12 59 -305 131 -650 71 -345 139 -669
149 -719 22 -112 39 -146 91 -184 67 -48 137 -64 279 -64 119 0 146 5 565 93
242 50 548 114 680 142 394 82 812 169 935 194 277 57 765 158 870 180 63 14
408 85 765 159 1250 259 1723 358 2105 437 212 44 437 91 500 104 63 13 180
37 260 54 80 16 287 59 460 95 1336 276 1313 271 1445 340 107 56 185 152 185
228 0 19 -43 241 -95 493 -142 683 -162 782 -180 870 -28 140 -51 177 -136
221 -73 37 -221 53 -344 37z m245 -196 c33 -12 35 -15 51 -92 9 -44 26 -125
37 -180 12 -55 37 -179 57 -275 19 -96 42 -204 50 -240 39 -174 125 -603 125
-625 0 -32 -81 -86 -179 -120 -37 -13 -299 -72 -582 -130 -283 -59 -611 -127
-729 -151 -118 -25 -278 -58 -355 -74 -77 -16 -194 -41 -260 -54 -66 -14 -599
-125 -1185 -246 -586 -122 -1159 -241 -1275 -265 -115 -24 -322 -67 -460 -95
-137 -28 -304 -63 -370 -77 -66 -13 -172 -35 -235 -48 -127 -27 -304 -64 -480
-101 -63 -13 -356 -73 -650 -134 -294 -61 -588 -122 -653 -135 -64 -14 -170
-36 -235 -50 -64 -13 -272 -57 -462 -97 -323 -68 -353 -73 -470 -73 -172 0
-167 -4 -203 166 -15 74 -57 276 -93 449 -36 173 -87 421 -114 551 -28 129
-50 245 -50 256 0 29 88 87 178 119 40 14 170 45 290 70 119 25 334 69 477 99
143 30 370 77 505 105 135 28 277 57 315 65 39 8 126 26 195 40 516 108 2455
510 2750 571 201 41 419 87 485 100 66 14 172 36 235 50 63 13 169 35 235 49
66 13 174 36 240 49 66 14 588 123 1160 241 572 119 1123 234 1225 255 199 41
359 51 430 27z"/>
<path d="M8708 3119 c-176 -37 -190 -43 -186 -71 2 -16 12 -24 32 -28 36 -6
27 23 106 -360 l63 -302 -27 -21 c-31 -25 -27 -57 8 -57 29 0 279 51 288 59 4
4 -19 132 -51 286 -33 154 -67 316 -75 359 l-17 79 27 28 c23 24 25 31 14 44
-16 19 -18 19 -182 -16z"/>
<path d="M8078 2987 c-87 -20 -88 -21 -88 -51 0 -18 45 -128 104 -256 65 -142
99 -228 92 -232 -5 -4 -32 -10 -59 -13 -39 -6 -50 -12 -58 -32 -5 -14 -7 -28
-4 -33 2 -4 33 -2 67 6 92 19 92 19 116 -36 26 -59 28 -83 7 -100 -8 -7 -15
-21 -15 -31 0 -27 31 -25 207 12 182 38 207 56 131 93 -28 14 -40 37 -264 516
-81 175 -81 175 -115 176 -19 1 -73 -7 -121 -19z"/>
<path d="M7458 2857 c-158 -34 -192 -51 -163 -81 9 -9 25 -16 35 -16 10 0 21
-8 24 -18 3 -10 35 -157 71 -327 l66 -310 -26 -23 c-38 -33 -29 -57 20 -56 49
0 305 54 323 67 23 18 14 47 -18 54 -17 3 -33 9 -35 13 -6 10 -135 622 -135
641 0 7 12 23 27 35 24 19 26 24 14 38 -18 21 -29 20 -203 -17z"/>
<path d="M7117 2787 c-47 -10 -48 -11 -41 -41 3 -17 12 -33 18 -35 22 -8 65
-62 86 -109 12 -26 25 -54 29 -62 11 -22 50 -25 57 -5 6 16 -15 143 -37 228
-11 41 -21 44 -112 24z"/>
<path d="M7977 2730 c-4 -41 -12 -160 -18 -265 -12 -222 -19 -255 -59 -289
-33 -27 -39 -53 -14 -63 17 -6 177 24 207 39 23 12 6 45 -28 54 -13 3 -31 14
-41 25 -16 18 -16 34 -5 242 l13 222 -25 55 -24 54 -6 -74z"/>
<path d="M6877 2735 c-59 -12 -110 -25 -114 -29 -6 -5 13 -103 107 -551 36
-168 36 -173 9 -201 -13 -14 -19 -29 -15 -40 5 -14 15 -16 54 -10 93 12 297
59 311 72 20 18 7 41 -28 49 -16 3 -32 14 -35 23 -3 9 -32 150 -66 312 -33
162 -66 319 -72 348 -13 60 -3 58 -151 27z"/>
<path d="M6597 2678 c-39 -9 -48 -14 -44 -28 3 -10 15 -70 28 -134 18 -91 28
-117 42 -122 34 -11 47 14 47 88 0 48 6 84 21 118 36 84 16 101 -94 78z"/>
<path d="M9176 2654 c-9 -8 -16 -30 -16 -47 0 -77 -45 -166 -96 -189 -19 -9
-22 -16 -17 -37 3 -14 7 -28 9 -29 2 -3 214 38 221 43 5 3 -49 240 -58 258
-12 21 -23 22 -43 1z"/>
<path d="M6337 2621 c-96 -23 -108 -52 -34 -80 39 -15 62 -60 82 -159 19 -93
38 -133 81 -172 24 -22 26 -23 21 -5 -17 58 -57 265 -57 297 0 28 8 47 31 73
57 65 17 80 -124 46z"/>
<path d="M6010 2554 c-36 -8 -107 -24 -157 -35 -86 -19 -93 -22 -93 -45 0 -14
6 -26 13 -28 65 -17 63 -15 542 -551 l90 -101 77 15 c51 10 78 19 78 28 0 42
-53 249 -69 269 -10 13 -52 61 -93 106 -41 46 -130 145 -197 221 -67 75 -123
137 -124 136 -1 0 -31 -7 -67 -15z"/>
<path d="M5530 2452 c-63 -13 -115 -24 -116 -25 -1 -1 0 -14 3 -29 4 -24 10
-28 37 -28 52 0 128 -44 164 -95 32 -46 58 -57 69 -29 5 14 -22 180 -36 214
-5 14 -20 13 -121 -8z"/>
<path d="M5187 2381 c-70 -15 -132 -32 -138 -38 -18 -18 -2 -43 30 -49 36 -7
31 6 76 -209 41 -198 84 -401 90 -432 4 -15 -3 -28 -20 -41 -28 -22 -33 -50
-10 -58 15 -6 263 40 296 54 15 6 13 23 -17 162 -18 85 -54 254 -79 375 -60
287 -54 265 -79 264 -11 0 -78 -13 -149 -28z"/>
<path d="M5880 2298 c0 -4 19 -92 42 -195 23 -104 42 -216 42 -250 1 -55 -2
-65 -28 -92 -33 -34 -29 -61 7 -61 36 0 170 31 185 43 21 17 13 35 -25 54 -21
10 -45 32 -55 49 -10 17 -35 108 -55 202 -35 161 -39 174 -75 214 -20 24 -37
40 -38 36z"/>
<path d="M4629 2264 c-10 -3 -14 -13 -11 -33 3 -21 11 -30 35 -37 19 -5 37
-20 45 -36 15 -31 122 -534 122 -572 0 -16 -11 -38 -26 -53 -19 -19 -24 -32
-19 -50 5 -22 10 -25 38 -19 51 10 138 76 179 136 55 80 75 170 60 271 -33
226 -168 382 -342 394 -36 2 -72 2 -81 -1z"/>
<path d="M4403 2216 c-78 -17 -147 -36 -153 -42 -17 -17 -1 -41 30 -47 16 -4
31 -14 34 -24 3 -10 33 -148 66 -308 34 -159 63 -298 66 -307 3 -11 -5 -27
-20 -42 -27 -24 -33 -50 -16 -61 6 -4 80 8 164 25 l153 32 -34 162 c-43 202
-133 638 -133 643 0 4 2 5 -157 -31z"/>
<path d="M5552 2203 c-5 -10 -12 -36 -15 -57 -4 -21 -16 -49 -28 -62 -28 -30
-19 -79 17 -88 14 -4 40 -28 60 -56 38 -53 45 -57 63 -37 8 10 3 49 -19 153
-17 76 -32 145 -35 152 -7 18 -33 15 -43 -5z"/>
<path d="M3950 2122 c-158 -36 -165 -38 -165 -61 0 -19 7 -27 32 -33 30 -8 33
-12 48 -86 9 -42 27 -126 40 -187 13 -60 36 -172 52 -247 l27 -137 -26 -28
c-27 -28 -26 -48 2 -54 31 -6 331 59 349 76 20 19 7 41 -27 48 -17 3 -33 14
-36 24 -8 25 -118 552 -129 616 -3 22 1 32 19 44 27 18 32 48 8 57 -19 7 1 11
-194 -32z"/>
<path d="M3576 2044 c-60 -14 -111 -26 -113 -28 -2 -2 -1 -15 2 -29 6 -21 14
-25 52 -30 53 -6 118 -48 148 -95 22 -35 51 -50 68 -33 10 10 -26 219 -41 232
-4 4 -56 -4 -116 -17z"/>
<path d="M3265 1979 c-71 -16 -140 -33 -152 -39 -34 -14 -28 -37 14 -57 l37
-18 62 -300 c35 -165 63 -312 64 -327 0 -17 -7 -31 -20 -38 -23 -12 -27 -48
-5 -56 19 -8 344 61 358 75 16 16 -4 45 -32 49 -12 2 -26 13 -32 25 -5 12 -41
175 -80 362 -39 187 -74 343 -77 346 -4 3 -65 -7 -137 -22z"/>
<path d="M5738 1907 c-9 -6 -18 -27 -22 -46 -12 -65 -48 -121 -99 -154 -42
-27 -47 -34 -42 -57 4 -14 8 -26 9 -27 3 -3 229 47 234 52 9 8 -41 225 -53
235 -8 6 -17 5 -27 -3z"/>
<path d="M2862 1894 c-111 -24 -126 -44 -58 -78 50 -25 70 -61 92 -164 20
-101 31 -127 72 -165 l29 -28 -28 133 c-38 177 -38 208 2 253 56 63 23 78
-109 49z"/>
<path d="M2411 1800 c-68 -16 -128 -33 -133 -38 -19 -19 -3 -44 35 -57 21 -7
40 -15 41 -17 8 -10 367 -412 410 -458 28 -30 74 -81 101 -112 l51 -57 74 16
c41 9 77 18 79 19 1 2 -9 60 -24 130 l-26 127 -107 121 c-295 335 -315 356
-347 355 -16 0 -86 -14 -154 -29z"/>
<path d="M3596 1794 c-3 -9 -6 -28 -6 -43 0 -16 -11 -45 -25 -65 -37 -55 -33
-81 17 -103 15 -7 39 -30 53 -53 29 -46 65 -55 65 -16 0 26 -45 251 -55 279
-9 21 -41 22 -49 1z"/>
<path d="M1860 1677 c0 -19 8 -31 29 -41 43 -23 41 -16 138 -483 l37 -182 -23
-31 c-15 -22 -21 -39 -17 -56 6 -21 9 -22 34 -13 221 83 295 355 168 615 -64
129 -166 202 -296 212 l-70 5 0 -26z"/>
<path d="M1744 1665 c-171 -85 -239 -280 -177 -505 53 -191 186 -310 346 -310
57 0 57 0 57 30 0 19 -5 30 -14 30 -8 0 -23 8 -35 18 -18 14 -33 68 -87 326
-55 264 -63 314 -53 338 6 15 15 28 20 28 11 0 12 41 1 57 -6 10 -20 7 -58
-12z"/>
<path d="M1353 1588 c-6 -7 -13 -21 -16 -31 -6 -17 -15 -18 -92 -12 -47 4 -85
3 -85 -1 1 -32 14 -54 34 -54 13 0 43 -14 68 -30 44 -29 65 -55 122 -147 27
-44 39 -50 65 -34 13 8 10 30 -14 148 -15 76 -32 146 -37 156 -10 20 -31 22
-45 5z"/>
<path d="M2393 1550 c58 -266 88 -431 83 -459 -3 -19 -17 -47 -32 -62 -30 -31
-27 -59 7 -59 42 0 184 33 191 44 15 22 7 35 -29 53 -53 25 -73 72 -112 258
-31 153 -35 162 -73 205 -34 38 -39 41 -35 20z"/>
<path d="M1044 1521 c-51 -23 -119 -83 -150 -132 -36 -58 -54 -134 -54 -232 0
-150 48 -282 133 -367 64 -63 117 -84 221 -88 l89 -4 -6 23 c-4 13 -7 27 -7
31 0 3 -13 11 -29 16 -44 15 -56 42 -90 207 -18 83 -43 201 -56 264 -31 141
-32 190 -5 224 22 28 27 77 8 77 -7 0 -32 -9 -54 -19z"/>
<path d="M1470 975 c-5 -14 -10 -34 -10 -44 0 -29 -54 -105 -97 -134 -32 -22
-39 -32 -35 -52 6 -33 30 -32 80 5 76 55 128 148 120 215 -4 41 -44 48 -58 10z"/>
</g>
</svg>
